# xmcd
#
# Track frame offsets:
#	150
#	14087
#	28882
#	47020
#	61795
#	75912
#	86600
#	101012
#	116092
#	128525
#	144677
#	155452
#	168607
#	181325
#	194437
#
# Disc length: 2795 seconds
#
# Revision: 2
# Processed by: cddbd v1.5.2PL0 Copyright (c) Steve Scherf et al.
# Submitted via: EZCDAudioConverter 7.1.6.1
#
DISCID=c70ae90f
DTITLE=Various Artist - Country Gospel Collection - Volume one
DYEAR=1900
DGENRE=country
TTITLE0=Lee Greenwood - Amazing Grace
TTITLE1=Lee Greenwood - God Bless The USA
TTITLE2=Graham Brown - The Old Rugged Cross
TTITLE3=Graham Brown - Rock Of Ages
TTITLE4=Eddy Raven - Leaning On The Everlasting Arms
TTITLE5=Eddy Raven - Love Lifted Me
TTITLE6=Mark Gray - When The Roll Is Called Up Yonder
TTITLE7=Mark Gray - Glad Reunion Day
TTITLE8=Sandy Posey - Blessed Assurance
TTITLE9=Sandy Posey - What a Friend We Have In Jesus
TTITLE10=Jordanaires - Power In The Blood
TTITLE11=Jordanaires - In The Sweet By And By
TTITLE12=Patsy Cline - Just A Closer Walk With Thee
TTITLE13=Patsy Cline - Life's Railway To Heaven
TTITLE14=Marty Haggard - Hello God
EXTD=
EXTT0=
EXTT1=
EXTT2=
EXTT3=
EXTT4=
EXTT5=
EXTT6=
EXTT7=
EXTT8=
EXTT9=
EXTT10=
EXTT11=
EXTT12=
EXTT13=
EXTT14=
PLAYORDER=
